<?xml version="1.0" standalone="no"?>
<svg id="Vector" width="51" height="49" viewBox="0 0 51 49" fill="none" xmlns="http://www.w3.org/2000/svg" style="max-width: 100%; max-height: 100%;">
<path d="M39.5752 36.848L22.2074 36.8781L29.9323 9.13617L20.3188 43.6873M36.4153 47.1583C36.4153 47.1583 50.0792 40.8228 49.7277 25.8574C49.6988 22.4602 48.9682 19.1057 47.5829 16.0037C46.1976 12.9016 44.1876 10.1189 41.6772 7.82989C37.1942 3.74537 31.2962 1.56713 25.2345 1.75685C18.9314 1.88699 12.9357 4.50315 8.55312 9.03516C4.31359 13.4142 1.88315 19.2328 1.75035 25.3264C1.55163 30.6028 3.2125 35.7813 6.44217 39.9585C7.92149 41.796 9.60703 43.4577 11.4654 44.9107C12.5546 45.7703 13.7411 46.4984 15.0009 47.0799C15.559 44.8021 17.7568 37.7425 19.7148 31.1053C22.6352 21.2038 25.6558 10.7865 25.6558 10.7865L36.4153 47.1583Z" stroke="white" stroke-width="2" stroke-dasharray="0,0,0,286.2241516113281"><animate attributeType="XML" attributeName="stroke-dasharray" repeatCount="1" dur="3.3333333333333335s" values="0,0,0,286.2241516113281; 
          0,143.11207580566406,143.11207580566406,0; 
          286.2241516113281,0,0,0" keyTimes="0; 0.5; 1" fill="freeze"></animate></path>
</svg>