<svg xmlns="http://www.w3.org/2000/svg" width="14.112" height="14.127" viewBox="0 0 14.112 14.127">
  <path id="Attachfile" d="M10.512,0A2.8,2.8,0,0,1,11.84.314a2.96,2.96,0,0,1,1.558,1.8A2.368,2.368,0,0,1,12.744,4.6c-.074.075-.153.147-.229.22q-3.449,3.3-6.9,6.592a1.761,1.761,0,0,1-.814.456,1.713,1.713,0,0,1-2.136-1.334,1.556,1.556,0,0,1,.475-1.415c.144-.143.293-.281.439-.421L7.928,4.545c.028-.027.056-.055.087-.08a.433.433,0,0,1,.572.032.388.388,0,0,1,0,.547c-.023.024-.048.046-.072.069Q6.143,7.384,3.767,9.654a.861.861,0,0,0-.275.51.843.843,0,0,0,.664.929.891.891,0,0,0,.83-.217c.036-.033.07-.067.105-.1l5-4.778q1-.959,2.01-1.917a1.74,1.74,0,0,0,.511-.839A1.612,1.612,0,0,0,12.54,2.2,2.166,2.166,0,0,0,10.969.858,1.792,1.792,0,0,0,9.3,1.289c-.018.016-.035.033-.053.05L1.683,8.563A2.634,2.634,0,0,0,.909,9.9a2.7,2.7,0,0,0,2.235,3.25A2.836,2.836,0,0,0,5.7,12.392q3.772-3.6,7.536-7.2a.514.514,0,0,1,.256-.152.426.426,0,0,1,.442.177.385.385,0,0,1-.022.457.81.81,0,0,1-.069.072q-3.784,3.615-7.568,7.23a3.623,3.623,0,0,1-2.043.985A3.639,3.639,0,0,1,.09,11.243,3.3,3.3,0,0,1,1.089,8Q4.871,4.371,8.668.757A2.674,2.674,0,0,1,10,.054,2.717,2.717,0,0,1,10.512,0" transform="translate(0.052 0.05)" fill="#e4572e" stroke="#e4572e" stroke-width="0.1"/>
</svg>
