<svg xmlns="http://www.w3.org/2000/svg" width="18.397" height="18.403" viewBox="0 0 18.397 18.403">
  <path id="Billing" d="M-3059.17,7152.55a6.323,6.323,0,0,1-1.833-4.477,6.318,6.318,0,0,1,1.833-4.475,6.21,6.21,0,0,1,4.038-1.844v-2.706c0-.885.7-1.686,1.982-2.253a10.88,10.88,0,0,1,4.282-.792,10.881,10.881,0,0,1,4.282.792c1.278.567,1.98,1.369,1.98,2.253v9.408c0,.887-.7,1.686-1.98,2.253a10.9,10.9,0,0,1-4.282.792c-.124,0-.271,0-.447-.009-.05,0-.1,0-.151,0a6.424,6.424,0,0,1-.846,1.062,6.187,6.187,0,0,1-4.43,1.855,6.188,6.188,0,0,1-4.428-1.854Zm.679-8.272a5.36,5.36,0,0,0-1.555,3.8,5.356,5.356,0,0,0,1.555,3.8,5.235,5.235,0,0,0,3.751,1.57,5.228,5.228,0,0,0,3.752-1.57,5.36,5.36,0,0,0,1.554-3.762l-.007-.323-.011-.174c0-.027,0-.052-.007-.077l-.009-.076a5.076,5.076,0,0,0-.1-.583v-.013l-.016-.066c-.009-.038-.018-.075-.029-.113v-.015c-.018-.068-.036-.129-.054-.187l-.02-.066a5.392,5.392,0,0,0-1.3-2.137,5.257,5.257,0,0,0-3.471-1.562h-.011c-.086,0-.174-.007-.269-.007a5.243,5.243,0,0,0-3.751,1.554Zm14.714,3.641-.339.208-.467.231-.327.135-.5.17-.607.167-.521.111-.542.088-.8.084-.691.032a6.332,6.332,0,0,1-.4,1.392h.1a9.917,9.917,0,0,0,3.9-.709c.894-.4,1.408-.9,1.408-1.372v-.693Zm-.336-2.147-.318.165-.2.094-.442.174-.359.119-.366.1-.458.11-.528.1-.576.081-.661.058-.58.023a6.357,6.357,0,0,1,.106.73l.018.3,0,.317v.036a11.227,11.227,0,0,0,2.192-.272l.225-.057.625-.19.467-.185c.894-.4,1.408-.9,1.408-1.372v-.693Zm-4.767.065h.013a9.908,9.908,0,0,0,3.9-.709c.9-.4,1.408-.9,1.408-1.374v-.693l-.216.156-.339.207-.467.232a10.88,10.88,0,0,1-4.284.793c-.248,0-.5-.007-.752-.021a6.306,6.306,0,0,1,.738,1.4Zm-5.293-4.44h0l0,.109,0,.027.007.012v.029l.007.007.009.047.023.056h.009l.038.093a6.158,6.158,0,0,1,3.514,1.589l.187.025.431.044.138.013c.3.021.614.032.927.032a9.907,9.907,0,0,0,3.9-.709c.894-.4,1.408-.9,1.408-1.374v-.691l-.5.332-.368.192-.151.07a10.9,10.9,0,0,1-4.284.792,10.881,10.881,0,0,1-4.282-.792l-.382-.185-.426-.255-.216-.156Zm1.408-3.719c-.894.4-1.408.9-1.408,1.372s.514.979,1.408,1.375a9.935,9.935,0,0,0,3.9.709,9.952,9.952,0,0,0,3.9-.709c.894-.4,1.408-.9,1.408-1.375s-.513-.975-1.408-1.372a9.916,9.916,0,0,0-3.9-.708,9.914,9.914,0,0,0-3.895.7Zm-2.454,14.785v-1.025a1.922,1.922,0,0,1-.887-.512,1.948,1.948,0,0,1-.565-1.381v-.481h.957v.481a.982.982,0,0,0,.285.7.96.96,0,0,0,.689.288.96.96,0,0,0,.689-.289.99.99,0,0,0,.286-.7c0-.7-.411-.837-1.086-1-.853-.207-1.821-.44-1.821-1.939a1.951,1.951,0,0,1,.564-1.379,1.931,1.931,0,0,1,.889-.513v-1.026h.959v1.027a1.908,1.908,0,0,1,.889.512,1.952,1.952,0,0,1,.566,1.381v.48h-.959v-.481a.985.985,0,0,0-.286-.7.963.963,0,0,0-.689-.289.965.965,0,0,0-.688.287.994.994,0,0,0-.285.7c0,.7.413.839,1.086,1,.855.207,1.823.44,1.823,1.939a1.954,1.954,0,0,1-.566,1.381,1.926,1.926,0,0,1-.889.512v1.025Z" transform="translate(3061.003 -7136.001)" fill="#fff"/>
</svg>
