<svg xmlns="http://www.w3.org/2000/svg" width="18.399" height="18.4" viewBox="0 0 18.399 18.4">
  <path id="Billing" d="M-3059.166,7152.546a6.321,6.321,0,0,1-1.833-4.477,6.318,6.318,0,0,1,1.833-4.474,6.213,6.213,0,0,1,4.038-1.844v-2.706c0-.885.7-1.686,1.982-2.253a10.883,10.883,0,0,1,4.282-.792,10.883,10.883,0,0,1,4.282.792c1.278.567,1.98,1.368,1.98,2.253v9.408c0,.887-.7,1.686-1.98,2.253a10.883,10.883,0,0,1-4.282.792c-.124,0-.271,0-.447-.009-.05,0-.1,0-.151-.005a6.4,6.4,0,0,1-.846,1.062,6.19,6.19,0,0,1-4.43,1.854A6.19,6.19,0,0,1-3059.166,7152.546Zm.679-8.272a5.361,5.361,0,0,0-1.555,3.8,5.356,5.356,0,0,0,1.555,3.8,5.235,5.235,0,0,0,3.751,1.571,5.229,5.229,0,0,0,3.751-1.571,5.359,5.359,0,0,0,1.555-3.762l-.007-.323-.011-.174c0-.027-.005-.052-.007-.077l-.009-.076a5.056,5.056,0,0,0-.1-.583l0-.013-.016-.066c-.009-.038-.018-.075-.029-.113l0-.015c-.018-.068-.036-.129-.054-.187l-.02-.066a5.394,5.394,0,0,0-1.3-2.137,5.258,5.258,0,0,0-3.471-1.562l-.011,0c-.086,0-.174-.007-.269-.007A5.243,5.243,0,0,0-3058.488,7144.274Zm14.714,3.641-.339.208-.467.231-.327.135-.5.17-.607.167-.521.111-.542.088-.8.084-.691.032a6.334,6.334,0,0,1-.4,1.392h.1a9.919,9.919,0,0,0,3.9-.709c.894-.4,1.408-.9,1.408-1.372v-.693Zm-.336-2.147-.318.165-.2.094-.442.174-.359.119-.366.1-.458.11-.528.1-.576.081-.661.058-.58.023a6.306,6.306,0,0,1,.106.731l.018.3.005.317,0,.006v.03a11.235,11.235,0,0,0,2.192-.273l.225-.056.625-.19.467-.185c.894-.4,1.408-.9,1.408-1.372v-.693Zm-4.767.065h.013a9.91,9.91,0,0,0,3.9-.709c.9-.4,1.408-.9,1.408-1.374v-.693l-.216.156-.339.207-.467.232a10.877,10.877,0,0,1-4.284.793c-.248,0-.5-.007-.752-.021A6.324,6.324,0,0,1-3048.876,7145.833Zm-5.293-4.44,0,0,.005.109.005.027.007.012,0,.029.007.007.009.047.023.056h.009l.038.093a6.156,6.156,0,0,1,3.514,1.589l.187.025.431.044.138.013c.3.021.614.032.927.032a9.91,9.91,0,0,0,3.9-.709c.894-.4,1.408-.9,1.408-1.374v-.691l-.5.332-.368.192-.151.07a10.9,10.9,0,0,1-4.284.792,10.883,10.883,0,0,1-4.282-.792l-.382-.185-.426-.255-.216-.156Zm1.408-3.719c-.894.4-1.408.9-1.408,1.372s.514.979,1.408,1.375a9.939,9.939,0,0,0,3.9.709,9.945,9.945,0,0,0,3.9-.709c.894-.4,1.408-.9,1.408-1.375s-.513-.975-1.408-1.372a9.919,9.919,0,0,0-3.9-.709A9.913,9.913,0,0,0-3052.762,7137.673Zm-2.454,14.785v-1.025a1.924,1.924,0,0,1-.887-.512,1.951,1.951,0,0,1-.565-1.381v-.481h.957v.481a.983.983,0,0,0,.285.7.959.959,0,0,0,.689.289.961.961,0,0,0,.689-.289.988.988,0,0,0,.286-.7c0-.7-.411-.838-1.086-1-.853-.207-1.821-.44-1.821-1.939a1.95,1.95,0,0,1,.564-1.379,1.937,1.937,0,0,1,.889-.513v-1.027h.959v1.027a1.915,1.915,0,0,1,.889.512,1.951,1.951,0,0,1,.566,1.38v.481h-.959v-.481a.986.986,0,0,0-.286-.7.963.963,0,0,0-.689-.289.969.969,0,0,0-.689.288.993.993,0,0,0-.285.7c0,.7.413.839,1.086,1,.855.207,1.823.44,1.823,1.939a1.953,1.953,0,0,1-.566,1.381,1.928,1.928,0,0,1-.889.512v1.025Z" transform="translate(3061 -7136)"/>
</svg>
