<svg xmlns="http://www.w3.org/2000/svg" width="16.561" height="16.509" viewBox="0 0 16.561 16.509">
  <path id="CRM" d="M15.135,9.9a.8.8,0,1,0,.8.8A.8.8,0,0,0,15.135,9.9Zm0,1.263A.466.466,0,1,1,15.6,10.7.467.467,0,0,1,15.135,11.163ZM11.065,9.9a.8.8,0,1,0,.8.8A.8.8,0,0,0,11.065,9.9Zm0,1.263a.466.466,0,1,1,.466-.466A.467.467,0,0,1,11.065,11.163ZM13.1,9.474a.864.864,0,1,0,.864.864A.865.865,0,0,0,13.1,9.474Zm0,1.4a.535.535,0,1,1,.535-.535A.535.535,0,0,1,13.1,10.871Zm7.993,4.18L20.079,13.3a.623.623,0,0,0,.108-.353V11.226a.633.633,0,0,0-.632-.632h-.738a.294.294,0,0,1-.286-.211,5.712,5.712,0,0,0-.387-.935A.3.3,0,0,1,18.2,9.1l.522-.522a.632.632,0,0,0,0-.893L17.505,6.466a.632.632,0,0,0-.893,0l-.524.522a.3.3,0,0,1-.353.054,5.648,5.648,0,0,0-.935-.387.3.3,0,0,1-.211-.286V5.632A.632.632,0,0,0,13.957,5H12.241a.633.633,0,0,0-.632.632v.74a.294.294,0,0,1-.211.286,5.712,5.712,0,0,0-.935.387.3.3,0,0,1-.353-.054L9.588,6.47a.632.632,0,0,0-.893,0L7.481,7.683a.632.632,0,0,0,0,.893L8,9.1a.3.3,0,0,1,.054.353,5.647,5.647,0,0,0-.387.935.3.3,0,0,1-.286.211H6.645a.633.633,0,0,0-.632.632v1.716a.628.628,0,0,0,.108.353L5.107,15.055A.84.84,0,0,0,5.415,16.2l.764.441a.839.839,0,0,0,1.1-.234l.411.393-.113.16a.864.864,0,0,0,.213,1.2.843.843,0,0,0,.54.153l-.079.112A.861.861,0,0,0,9.1,19.772l.027-.005a.864.864,0,0,0,1.392.789.863.863,0,0,0,1.543.286l.207-.3a2.346,2.346,0,0,0,1.4.584c.056,0,.112,0,.167-.009a.8.8,0,0,0,.773-.8,1.213,1.213,0,0,0,.538.063.869.869,0,0,0,.708-.537.887.887,0,0,0,.049-.477,1.663,1.663,0,0,0,.468.025.816.816,0,0,0,.683-.432,1.094,1.094,0,0,0,.088-.719,1.924,1.924,0,0,0,.387.025.878.878,0,0,0,.805-.5,1.063,1.063,0,0,0-.029-.922l.567-.515a.84.84,0,0,0,1.142.3l.764-.441A.84.84,0,0,0,21.093,15.051ZM6.344,11.228a.3.3,0,0,1,.3-.3h.738a.63.63,0,0,0,.6-.443,5.354,5.354,0,0,1,.366-.879.629.629,0,0,0-.113-.74l-.522-.522a.3.3,0,0,1,0-.425L8.931,6.7a.3.3,0,0,1,.425,0l.522.522a.631.631,0,0,0,.74.113,5.194,5.194,0,0,1,.879-.364.63.63,0,0,0,.443-.6v-.74a.3.3,0,0,1,.3-.3h1.716a.3.3,0,0,1,.3.3v.74a.63.63,0,0,0,.443.6,5.508,5.508,0,0,1,.879.364.629.629,0,0,0,.74-.113l.524-.522a.3.3,0,0,1,.425,0l1.214,1.214a.3.3,0,0,1,0,.425l-.522.522a.631.631,0,0,0-.113.74,5.42,5.42,0,0,1,.366.879.63.63,0,0,0,.6.443h.738a.3.3,0,0,1,.3.3V12.91l-.81-1.4A.841.841,0,0,0,17.9,11.2l-.394.227a4.452,4.452,0,0,0-8.807,0L8.3,11.2a.842.842,0,0,0-1.147.308l-.81,1.4Zm11.734,5.394L14.3,14.439a1.27,1.27,0,0,0-.681-.214l-.322,0a.838.838,0,0,0-.729.42l-.061.1a1.37,1.37,0,0,1-1.635.6.244.244,0,0,1-.13-.353l1.109-1.922a.549.549,0,0,1,.457-.259l1.967-.13a2.3,2.3,0,0,1,.924.121l.63.213a1.478,1.478,0,0,0,1.109-.05l1.774,3.073Zm-3.413-4.254a2.183,2.183,0,0,0-.148-.243,1.181,1.181,0,0,1,.616-.178,1.315,1.315,0,0,1,1.178.834,1.222,1.222,0,0,1-.378-.067L15.3,12.5A2.457,2.457,0,0,0,14.665,12.368Zm-.384-.007h-.029l-1.967.13a.92.92,0,0,0-.54.207A1.487,1.487,0,0,1,13.1,11.684,1.421,1.421,0,0,1,14.281,12.361Zm-2.966.666a.265.265,0,0,0,0,.038,3.479,3.479,0,0,1-1.461-.2,1.32,1.32,0,0,1,1.21-.922,1.19,1.19,0,0,1,.614.176A2.151,2.151,0,0,0,11.315,13.027Zm5.466-.344a1.248,1.248,0,0,1-.13.047,1.656,1.656,0,0,0-1.516-1.117,1.5,1.5,0,0,0-.832.252,1.667,1.667,0,0,0-2.408,0,1.512,1.512,0,0,0-.83-.25,1.648,1.648,0,0,0-1.525,1.144l-.13-.05a.816.816,0,0,0,.047-.558.826.826,0,0,0-.391-.51L9.006,11.6a4.121,4.121,0,0,1,8.187,0l-.059.034A.839.839,0,0,0,16.781,12.683ZM6.343,16.353l-.764-.441a.509.509,0,0,1-.186-.7l2.048-3.546a.505.505,0,0,1,.31-.236.485.485,0,0,1,.133-.018.5.5,0,0,1,.252.068l.764.441a.505.505,0,0,1,.236.31.5.5,0,0,1-.05.385L7.039,16.166A.512.512,0,0,1,6.343,16.353ZM7.976,17.89a.531.531,0,0,1-.13-.74l.389-.555a.531.531,0,0,1,.958.214.523.523,0,0,1-.086.4l-.389.555h0a.533.533,0,0,1-.742.13Zm1.412,1.338a.531.531,0,0,1-.958-.213.523.523,0,0,1,.086-.4l.468-.668.389-.555h0l.328-.468a.531.531,0,0,1,.87.611l-.189.27h0l-.994,1.419Zm1.032.956a.533.533,0,0,1-.344.218.523.523,0,0,1-.4-.086.531.531,0,0,1-.13-.74l.11-.158,1-1.421a.531.531,0,0,1,.87.611l-.261.371-.614.877Zm1.374.468a.531.531,0,0,1-.87-.611h0l.614-.877h0a.531.531,0,1,1,.87.611Zm6.248-3.017a.557.557,0,0,1-.52.306,1.836,1.836,0,0,1-.566-.076l-1.246-.684a.166.166,0,0,0-.16.29l1.217.67a.812.812,0,0,1,0,.67.5.5,0,0,1-.423.259,1.534,1.534,0,0,1-.656-.1l-1.252-.688a.166.166,0,1,0-.16.29l1.226.674a.521.521,0,0,1,.045.479.538.538,0,0,1-.448.331,1.223,1.223,0,0,1-.6-.128l-1.255-.69a.166.166,0,1,0-.16.29l1.189.654a.645.645,0,0,1-.1.427.538.538,0,0,1-.38.182,1.9,1.9,0,0,1-1.34-.517l.218-.31a.862.862,0,0,0-.785-1.353.863.863,0,0,0-.922-1.167.862.862,0,0,0-1.479-.789.861.861,0,0,0-1.533-.25l-.077.117-.429-.409L9.249,13a5.211,5.211,0,0,0,1.8.416c.079,0,.158-.005.234-.013l-.827,1.432a.574.574,0,0,0,.306.828,1.7,1.7,0,0,0,2.032-.744l.061-.1a.511.511,0,0,1,.448-.256l.322,0h.009a.99.99,0,0,1,.5.169l3.851,2.222A.728.728,0,0,1,18.042,17.636Zm2.577-1.724-.764.441a.5.5,0,0,1-.385.05.512.512,0,0,1-.31-.236L17.114,12.62a.511.511,0,0,1,.186-.7l.764-.441a.5.5,0,0,1,.254-.068.509.509,0,0,1,.441.254l2.048,3.546A.513.513,0,0,1,20.619,15.912Z" transform="translate(-4.796 -4.85)" stroke="#000" stroke-width="0.3"/>
</svg>
