<svg xmlns="http://www.w3.org/2000/svg" width="18" height="18" viewBox="0 0 18 18">
  <path id="dashboard" d="M7.5,14.25A1.494,1.494,0,0,1,6,12.75V7.5A1.494,1.494,0,0,1,7.5,6h5.25a1.494,1.494,0,0,1,1.5,1.5v5.25a1.494,1.494,0,0,1-1.5,1.5ZM7.5,24A1.494,1.494,0,0,1,6,22.5V17.25a1.494,1.494,0,0,1,1.5-1.5h5.25a1.494,1.494,0,0,1,1.5,1.5V22.5a1.494,1.494,0,0,1-1.5,1.5Zm9.75-9.75a1.494,1.494,0,0,1-1.5-1.5V7.5A1.494,1.494,0,0,1,17.25,6H22.5A1.494,1.494,0,0,1,24,7.5v5.25a1.494,1.494,0,0,1-1.5,1.5Zm0,9.75a1.494,1.494,0,0,1-1.5-1.5V17.25a1.494,1.494,0,0,1,1.5-1.5H22.5a1.494,1.494,0,0,1,1.5,1.5V22.5A1.494,1.494,0,0,1,22.5,24ZM7.5,12.75h5.25V7.5H7.5Zm9.75,0H22.5V7.5H17.25Zm0,9.75H22.5V17.25H17.25Zm-9.75,0h5.25V17.25H7.5ZM17.25,12.75ZM17.25,17.25ZM12.75,17.25ZM12.75,12.75Z" transform="translate(-6 -6)"/>
</svg>
