<svg xmlns="http://www.w3.org/2000/svg" width="12.5" height="16.5" viewBox="0 0 12.5 16.5">
  <g id="Delete" transform="translate(-1284.098 -424.657)">
    <path id="Path_87308" data-name="Path 87308" d="M2.634,12.417a1.8,1.8,0,0,1-1.8-1.789L0,.448a.529.529,0,0,1,.114-.3A.385.385,0,0,1,.425,0H11.6a.29.29,0,0,1,.267.142.365.365,0,0,1,.115.3l-.834,10.188a1.8,1.8,0,0,1-1.8,1.785Zm-.95-1.809a.969.969,0,0,0,.971.964H9.365a.969.969,0,0,0,.971-.964v-.021L11.144.845H.9Z" transform="translate(1284.349 428.49)" fill="#e4572e" stroke="#e4572e" stroke-width="0.5"/>
    <path id="Path_87309" data-name="Path 87309" d="M.426,3.1A.435.435,0,0,1,0,2.681a.425.425,0,0,1,.426-.423H3.21v-.8A1.465,1.465,0,0,1,4.677,0H7.344A1.464,1.464,0,0,1,8.811,1.459v.8h2.763a.423.423,0,1,1,0,.845ZM4.039,1.459v.8H7.983v-.8A.645.645,0,0,0,7.345.825H4.677A.645.645,0,0,0,4.039,1.459Z" transform="translate(1284.348 424.907)" fill="#e4572e" stroke="#e4572e" stroke-width="0.5"/>
    <path id="Path_87310" data-name="Path 87310" d="M4.723,6.7V.423a.423.423,0,1,1,.846,0V6.7a.423.423,0,0,1-.423.423A.448.448,0,0,1,4.723,6.7ZM2.362,6.7V.423a.423.423,0,1,1,.845,0V6.7a.423.423,0,1,1-.845,0ZM0,6.7V.423a.423.423,0,1,1,.845,0V6.7A.423.423,0,0,1,0,6.7Z" transform="translate(1287.574 431.137)" fill="#e4572e" stroke="#e4572e" stroke-width="0.5"/>
  </g>
</svg>
