<svg xmlns="http://www.w3.org/2000/svg" width="16.068" height="16.068" viewBox="0 0 16.068 16.068">
  <g id="Design_Tools" data-name="Design Tools" transform="translate(0)">
    <path id="Path_86790" data-name="Path 86790" d="M20.623,7.484c-1.444-1.446-2.529-1.229-2.529-1.229l-5.06,5.059L7.251,17.1,6.24,21.866l4.77-1.011L21.854,10.014S22.07,8.93,20.623,7.484Zm-9.9,12.8-1.627.35a3.94,3.94,0,0,0-1.625-1.625l.35-1.627.471-.469a3.037,3.037,0,0,1,1.883,1.017A3.054,3.054,0,0,1,11.2,19.81Z" transform="translate(-6.24 -6.209)"/>
    <path id="Path_86791" data-name="Path 86791" d="M8.4,12.541l.683-.683-3.1-3.1L8.756,5.984l.64.64-.863.863a.483.483,0,0,0,.683.683l.863-.863,1.181,1.18-.864.864a.483.483,0,0,0,0,.683.475.475,0,0,0,.378.134L12.542,8.4,9.378,5.239A.927.927,0,0,0,8.073,5.3L5.3,8.072a.927.927,0,0,0-.061,1.305Z" transform="translate(-5.001 -4.999)"/>
    <path id="Path_86792" data-name="Path 86792" d="M60.067,55.93l-3.161-3.161L55.1,54.578a.474.474,0,0,0,.132.29.482.482,0,0,0,.683,0L56.775,54l1.181,1.181-.864.864a.483.483,0,0,0,.683.683l.863-.863.684.684h0l-2.771,2.772-3.1-3.1-.683.683,3.162,3.161a.928.928,0,0,0,1.305-.061l2.771-2.771A.927.927,0,0,0,60.067,55.93Z" transform="translate(-44.24 -44.241)"/>
  </g>
</svg>
