<svg xmlns="http://www.w3.org/2000/svg" width="22.691" height="23.951" viewBox="0 0 22.691 23.951">
  <g id="Download" transform="translate(14432.5 1788)">
    <path id="Path_87318" data-name="Path 87318" d="M13.824,16.344V4.261a1.261,1.261,0,0,0-2.521,0V16.344L7.152,12.193a1.261,1.261,0,0,0-1.783,1.783l7.194,7.194,7.194-7.194a1.261,1.261,0,0,0-1.783-1.783Z" transform="translate(-14433.719 -1791)" fill="#fff"/>
    <path id="Path_87319" data-name="Path 87319" d="M4.761,9.5a1.261,1.261,0,0,1,1.261,1.261v2.017a1.765,1.765,0,0,0,1.765,1.765H21.9a1.765,1.765,0,0,0,1.765-1.765V10.761a1.261,1.261,0,1,1,2.521,0v2.017A4.286,4.286,0,0,1,21.9,17.064H7.786A4.286,4.286,0,0,1,3.5,12.778V10.761A1.261,1.261,0,0,1,4.761,9.5Z" transform="translate(-14436 -1781.112)" fill="#fff"/>
  </g>
</svg>
