<svg xmlns="http://www.w3.org/2000/svg" width="16.614" height="16.6" viewBox="0 0 16.614 16.6">
  <path id="History" d="M8.527,16.5A8,8,0,1,1,8.5.5l.058,0a8.049,8.049,0,0,1,5.995,2.712.4.4,0,0,0,.3.136.455.455,0,0,0,.388-.306l.185-.775a.543.543,0,0,1,.529-.416.525.525,0,0,1,.121.014l.014,0a.538.538,0,0,1,.4.651l-.67,2.814a.543.543,0,0,1-.53.419.562.562,0,0,1-.121-.014l-.822-.2-1.981-.485a.547.547,0,0,1-.411-.62l.007-.032a.532.532,0,0,1,.521-.415c.042,0,.4.078.434.078a.4.4,0,0,0,.268-.693,6.914,6.914,0,1,0-.751,10.851l.018-.013a.543.543,0,0,1,.308-.107h.019a.544.544,0,0,1,.274,1.014l-.026.015A8.014,8.014,0,0,1,8.527,16.5ZM14.6,12.893a.542.542,0,0,1-.021-1.085H14.6a.542.542,0,1,1-.006,1.085ZM11.96,11.3a.546.546,0,0,1-.3-.089L8.268,8.98A.588.588,0,0,1,7.983,8.5V4.165A.541.541,0,0,1,8.5,3.624l.04,0a.549.549,0,0,1,.533.543V7.995a.4.4,0,0,0,.18.332L12.261,10.3a.548.548,0,0,1,.165.737l-.01.016A.544.544,0,0,1,11.96,11.3Z" transform="translate(-0.2 -0.2)" fill="#bf9853" stroke="#bf9853" stroke-width="0.6"/>
</svg>
