<svg xmlns="http://www.w3.org/2000/svg" width="18.607" height="16.149" viewBox="0 0 18.607 16.149">
  <g id="HR" transform="translate(8326.684 2456.074)">
    <path id="Path_86797" data-name="Path 86797" d="M674.841,333.193a2.511,2.511,0,1,1,2.511-2.511,2.511,2.511,0,0,1-2.511,2.511Zm0-4.508a2,2,0,1,0,2,2A2,2,0,0,0,674.841,328.685Z" transform="translate(-8991.192 -2784.045)" fill="#fff" stroke="#fff" stroke-width="0.4"/>
    <path id="Path_86793" data-name="Path 86793" d="M752.814,896.187a1.217,1.217,0,0,1-.417-.075l-2.481-.747a.257.257,0,1,1,.148-.493l2.489.748.016.005a.708.708,0,0,0,.91-.417.257.257,0,1,1,.482.18,1.224,1.224,0,0,1-1.147.8Z" transform="translate(-9067.149 -3340.158)" fill="#fff" stroke="#fff" stroke-width="0.4"/>
    <path id="Path_86794" data-name="Path 86794" d="M462.321,754.568a1.221,1.221,0,0,1-.428-.077.257.257,0,1,1,.18-.482.708.708,0,1,0,.494-1.327l-3.978-1.48a2.229,2.229,0,0,0-1.775.1l-2.73,1.377a.257.257,0,0,1-.232-.459l2.73-1.377a2.744,2.744,0,0,1,2.186-.121l3.978,1.48a1.223,1.223,0,0,1-.426,2.369Z" transform="translate(-8776.655 -3198.538)" fill="#fff" stroke="#fff" stroke-width="0.4"/>
    <path id="Path_86795" data-name="Path 86795" d="M558.443,808.75a1.635,1.635,0,0,1-.5-.08l-4.374-1.417-.786.331a.257.257,0,1,1-.2-.473l.874-.368a.258.258,0,0,1,.179-.008l4.465,1.446a1.111,1.111,0,0,0,.933-.114l5.268-3.281a.728.728,0,0,0,.261-.98.708.708,0,0,0-.982-.238l-3.713,2.206a.257.257,0,0,1-.263-.442l3.708-2.2a1.223,1.223,0,0,1,1.691.414,1.244,1.244,0,0,1-.431,1.68L559.3,808.5a1.625,1.625,0,0,1-.857.25Z" transform="translate(-8873.511 -3249.958)" fill="#fff" stroke="#fff" stroke-width="0.4"/>
    <path id="Path_86796" data-name="Path 86796" d="M267.152,808.078a.257.257,0,0,1-.223-.128l-2.757-4.76a.257.257,0,0,1,.093-.352l2.839-1.645a.257.257,0,0,1,.352.093l2.758,4.76a.257.257,0,0,1-.093.352l-2.839,1.646a.257.257,0,0,1-.13.034Zm-2.407-4.923,2.5,4.314,2.394-1.387-2.5-4.314Z" transform="translate(-8590.62 -3248.203)" fill="#fff" stroke="#fff" stroke-width="0.4"/>
    <path id="Path_86798" data-name="Path 86798" d="M587.366,575.873a.257.257,0,0,1-.258-.258v-3a2.454,2.454,0,0,0-2.451-2.451h-2.572a2.453,2.453,0,0,0-2.45,2.451v1.115a.258.258,0,0,1-.515,0v-1.115a2.968,2.968,0,0,1,2.965-2.965h2.573a2.968,2.968,0,0,1,2.965,2.965v3a.257.257,0,0,1-.257.258Z" transform="translate(-8899.723 -3021.017)" fill="#fff" stroke="#fff" stroke-width="0.4"/>
  </g>
</svg>
