<svg xmlns="http://www.w3.org/2000/svg" width="15.202" height="14.5" viewBox="0 0 15.202 14.5">
  <g id="Import" transform="translate(-0.921 -2.393)">
    <path id="Path_86378" data-name="Path 86378" d="M-10893.086,15733.994a1.947,1.947,0,0,1-1.942-1.946v-5.358a1.947,1.947,0,0,1,1.942-1.943h2.776a.673.673,0,0,1,.667.672.662.662,0,0,1-.193.474.67.67,0,0,1-.474.2h-2.776a.59.59,0,0,0-.6.6v5.358a.591.591,0,0,0,.6.6h11.313a.592.592,0,0,0,.6-.6v-5.358a.591.591,0,0,0-.6-.6h-2.768a.683.683,0,0,1-.479-.2.692.692,0,0,1-.193-.478.673.673,0,0,1,.672-.668h2.768a1.947,1.947,0,0,1,1.946,1.943v5.358a1.947,1.947,0,0,1-1.946,1.946Z" transform="translate(10895.949 -15717.101)" fill="#e4572e"/>
    <path id="Path_86390" data-name="Path 86390" d="M-10888.1,15718.465v9.351l-2.144-2.1a.671.671,0,0,0-.466-.189h-.013a.672.672,0,0,0-.474.205.671.671,0,0,0,.016.944l3.282,3.222a.687.687,0,0,0,.414.186c.02,0,.035,0,.056,0a.672.672,0,0,0,.47-.189l3.281-3.222a.673.673,0,0,0,.012-.948.662.662,0,0,0-.481-.2.668.668,0,0,0-.466.189l-2.145,2.1v-9.347a.663.663,0,0,0-.2-.474.67.67,0,0,0-.474-.2A.671.671,0,0,0-10888.1,15718.465Z" transform="translate(10895.949 -15715.4)" fill="#e4572e"/>
  </g>
</svg>
