<svg xmlns="http://www.w3.org/2000/svg" width="16.928" height="16.928" viewBox="0 0 16.928 16.928">
  <g id="Master_Data" data-name="Master Data" transform="translate(3850.25 359.25)">
    <path id="Path_88094" data-name="Path 88094" d="M8.841,15.762c0,.94,2.186,1.19,3.478,1.19S15.8,16.7,15.8,15.762V9.433h0c0-.94-2.186-1.19-3.478-1.19s-3.478.251-3.478,1.19h0Zm6.33-2.086c-.109.2-1.166.577-2.852.577s-2.743-.372-2.852-.577v-1.5a7.752,7.752,0,0,0,2.852.459,7.752,7.752,0,0,0,2.852-.459Zm0-2.244c-.109.2-1.166.577-2.852.577s-2.743-.372-2.852-.577v-1.27a7.752,7.752,0,0,0,2.852.459,7.752,7.752,0,0,0,2.852-.459Zm-2.852,4.894c-1.686,0-2.743-.372-2.852-.577V14.42a7.746,7.746,0,0,0,2.852.459,7.752,7.752,0,0,0,2.852-.459v1.33C15.062,15.955,14.005,16.327,12.319,16.327Zm0-7.459a5,5,0,0,1,2.844.565A5,5,0,0,1,12.319,10a5,5,0,0,1-2.844-.565A5,5,0,0,1,12.319,8.868Zm.334,2.457a.313.313,0,0,1,.294-.33c.234-.013.464-.035.684-.064a.313.313,0,0,1,.081.62c-.235.031-.48.054-.73.068h-.018A.313.313,0,0,1,12.652,11.325Zm1.512-.156a.313.313,0,0,1,.226-.38l.086-.023a.313.313,0,0,1,.167.6l-.1.026a.312.312,0,0,1-.381-.225Zm-1.512,2.248a.313.313,0,0,1,.294-.33c.234-.013.464-.035.684-.064a.313.313,0,1,1,.081.62c-.235.031-.48.054-.73.068h-.018A.313.313,0,0,1,12.652,13.417Zm1.512-.156a.313.313,0,0,1,.226-.38l.085-.023a.313.313,0,0,1,.168.6l-.1.026a.312.312,0,0,1-.381-.225Zm-.183,2.165a.313.313,0,0,1-.269.351c-.235.031-.481.054-.73.068h-.018a.313.313,0,0,1-.018-.625c.234-.013.464-.035.684-.064A.313.313,0,0,1,13.981,15.426Zm.879-.217a.313.313,0,0,1-.217.385l-.1.026a.313.313,0,1,1-.155-.606l.086-.023A.313.313,0,0,1,14.861,15.21Z" transform="translate(-3854.105 -363.384)" stroke="#000" stroke-width="0.2"/>
    <path id="Path_88107" data-name="Path 88107" d="M18.77,9.64l-1.448-.174a.31.31,0,0,1-.265-.216,6.166,6.166,0,0,0-.323-.78.31.31,0,0,1,.035-.34l.9-1.147a.747.747,0,0,0-.059-.989L16.433,4.817a.747.747,0,0,0-.989-.059l-1.146.9a.309.309,0,0,1-.34.035,6.144,6.144,0,0,0-.78-.323.31.31,0,0,1-.216-.265l-.173-1.447A.747.747,0,0,0,12.046,3H10.382a.747.747,0,0,0-.741.658L9.467,5.105a.31.31,0,0,1-.216.265,6.166,6.166,0,0,0-.78.323.309.309,0,0,1-.34-.035l-1.147-.9a.747.747,0,0,0-.989.059L4.817,5.995a.747.747,0,0,0-.059.989l.9,1.146a.309.309,0,0,1,.035.34,6.16,6.16,0,0,0-.323.78.31.31,0,0,1-.265.216L3.658,9.64A.746.746,0,0,0,3,10.381v1.665a.747.747,0,0,0,.658.741l1.448.174a.31.31,0,0,1,.265.216,6.166,6.166,0,0,0,.323.78.309.309,0,0,1-.035.34l-.9,1.147a.747.747,0,0,0,.059.989L5.995,17.61a.747.747,0,0,0,.989.059l1.146-.9a.31.31,0,0,1,.34-.035,6.142,6.142,0,0,0,.78.323.31.31,0,0,1,.216.265L9.64,18.77a.747.747,0,0,0,.741.658h1.665a.747.747,0,0,0,.741-.658l.174-1.448a.31.31,0,0,1,.216-.265,6.144,6.144,0,0,0,.78-.323.309.309,0,0,1,.34.035l1.147.9a.747.747,0,0,0,.989-.059l1.177-1.177a.747.747,0,0,0,.059-.989l-.9-1.146a.309.309,0,0,1-.035-.34,6.134,6.134,0,0,0,.323-.78.31.31,0,0,1,.265-.216l1.447-.173a.747.747,0,0,0,.658-.741V10.382A.747.747,0,0,0,18.77,9.64ZM19,12.046a.316.316,0,0,1-.282.318l-1.447.173a.741.741,0,0,0-.619.5,5.717,5.717,0,0,1-.3.726.741.741,0,0,0,.081.794l.9,1.146a.316.316,0,0,1-.025.424l-1.177,1.177a.316.316,0,0,1-.424.025l-1.147-.9a.74.74,0,0,0-.794-.081,5.731,5.731,0,0,1-.726.3.741.741,0,0,0-.5.619l-.174,1.448a.316.316,0,0,1-.318.282H10.381a.317.317,0,0,1-.318-.282L9.89,17.272a.74.74,0,0,0-.5-.619,5.678,5.678,0,0,1-.726-.3.741.741,0,0,0-.794.081l-1.146.9a.316.316,0,0,1-.424-.025L5.119,16.132a.316.316,0,0,1-.025-.424l.9-1.147a.741.741,0,0,0,.081-.794,5.714,5.714,0,0,1-.3-.726.74.74,0,0,0-.619-.5l-1.448-.174a.316.316,0,0,1-.282-.318V10.382a.316.316,0,0,1,.282-.318L5.156,9.89a.741.741,0,0,0,.619-.5,5.691,5.691,0,0,1,.3-.726.741.741,0,0,0-.081-.794l-.9-1.146A.316.316,0,0,1,5.119,6.3L6.3,5.119a.316.316,0,0,1,.424-.025l1.147.9a.74.74,0,0,0,.794.081,5.751,5.751,0,0,1,.725-.3.741.741,0,0,0,.5-.619l.174-1.448a.316.316,0,0,1,.318-.282h1.665a.317.317,0,0,1,.318.282l.173,1.447a.74.74,0,0,0,.5.619,5.728,5.728,0,0,1,.726.3.741.741,0,0,0,.794-.081l1.146-.9a.316.316,0,0,1,.424.025L17.309,6.3a.316.316,0,0,1,.025.424l-.9,1.147a.741.741,0,0,0-.081.794,5.742,5.742,0,0,1,.3.726.741.741,0,0,0,.619.5l1.448.174a.316.316,0,0,1,.282.318Z" transform="translate(-3853 -362)" stroke="#000" stroke-width="0.5"/>
  </g>
</svg>
