<svg xmlns="http://www.w3.org/2000/svg" width="16.299" height="16.205" viewBox="0 0 16.299 16.205">
  <g id="Procurement" transform="translate(8325.979 2571.776)">
    <path id="Path_86788" data-name="Path 86788" d="M18.334,10.87a.653.653,0,0,0-.79.464L16.119,16.95H7.841L5.883,9a.645.645,0,0,0-.635-.5h-2.1a.653.653,0,0,0,0,1.3h1.6L7.395,20.59a.645.645,0,0,0,.635.5h7.539a.653.653,0,0,0,0-1.305H8.528l-.378-1.53H16.6a.681.681,0,0,0,.635-.481L18.8,11.66a.653.653,0,0,0-.466-.79Z" transform="translate(-8328.5 -2579.288)" fill="#fff"/>
    <circle id="Ellipse_3358" data-name="Ellipse 3358" cx="1.048" cy="1.048" r="1.048" transform="translate(-8320.299 -2557.667)" fill="#fff"/>
    <circle id="Ellipse_3359" data-name="Ellipse 3359" cx="1.048" cy="1.048" r="1.048" transform="translate(-8314.889 -2557.667)" fill="#fff"/>
    <path id="Path_86789" data-name="Path 86789" d="M45.636,7.022,44.469,8.19V3.553a.653.653,0,1,0-1.305,0V8.19L42,7.022a.664.664,0,0,0-.464-.189.7.7,0,0,0-.464.189.633.633,0,0,0,0,.91l2.284,2.284a.664.664,0,0,0,.91,0L46.55,7.932a.644.644,0,0,0-.91-.91Z" transform="translate(-8360.285 -2574.65)" fill="#fff"/>
  </g>
</svg>
