<svg width="14" height="14" viewBox="0 0 14 14" fill="none" xmlns="http://www.w3.org/2000/svg">
<mask id="mask0_413_3340" style="mask-type:alpha" maskUnits="userSpaceOnUse" x="0" y="0" width="14" height="14">
<rect width="14" height="14" fill="#D9D9D9"/>
</mask>
<g mask="url(#mask0_413_3340)">
<path d="M12.0387 11.9001H1.95946C1.26432 11.9001 0.699708 11.1823 0.699708 10.3003V6.30064C0.699117 5.85889 0.981429 5.50039 1.3293 5.50039C1.67717 5.50039 1.95948 5.85889 1.95948 6.30064V10.3003H12.0393V6.30064C12.0393 5.85889 12.3211 5.50039 12.6695 5.50039C13.018 5.50039 13.2997 5.85889 13.2997 6.30064L13.2991 10.3003C13.2991 11.1823 12.7333 11.9001 12.0387 11.9001ZM4.03371 5.26584C3.78743 4.9531 3.78743 4.44686 4.03371 4.13486L6.55383 0.934633C6.80011 0.621887 7.19876 0.621887 7.44445 0.934633L9.96457 4.13486C10.2109 4.44761 10.2109 4.95385 9.96457 5.26584C9.84173 5.42184 9.68049 5.5006 9.51926 5.5006C9.35802 5.5006 9.19679 5.4226 9.07394 5.26584L7.62932 3.43136V7.90023C7.62932 8.34273 7.34701 8.70048 6.99914 8.70048C6.65127 8.70048 6.36896 8.34273 6.36896 7.90023V3.43136L4.92434 5.26584C4.80149 5.42184 4.64026 5.5006 4.47902 5.5006C4.31779 5.5006 4.15655 5.4226 4.03371 5.26584Z" fill="#BF9853"/>
</g>
</svg>
