<svg xmlns="http://www.w3.org/2000/svg" width="17.675" height="18.527" viewBox="0 0 17.675 18.527">
  <g id="Utility_Hub_White" data-name="Utility Hub White" transform="translate(-27.11 -453.614)">
    <g id="Group_89899" data-name="Group 89899" transform="translate(27.11 453.614)">
      <g id="Group_89898" data-name="Group 89898">
        <g id="Group_89897" data-name="Group 89897">
          <path id="Path_88108" data-name="Path 88108" d="M6.271,40.645h4.584a9.416,9.416,0,0,1-.379-.929h-4.2l.593-.593a.465.465,0,0,0-.657-.657L4.819,39.852a.458.458,0,0,0-.136.329.488.488,0,0,0,.136.329l1.387,1.38a.454.454,0,0,0,.329.136.464.464,0,0,0,.329-.793l-.593-.587Z" transform="translate(-4.684 -31.344)" fill="#fff"/>
          <path id="Path_88109" data-name="Path 88109" d="M17.723,17.967a.464.464,0,0,0,.465-.465v-.836l2.424,2.424a1.523,1.523,0,0,1,.737-.579l-2.5-2.5h.836a.465.465,0,1,0,0-.929H17.723a.464.464,0,0,0-.465.465V17.5a.464.464,0,0,0,.465.465Z" transform="translate(-14.806 -12.626)" fill="#fff"/>
          <path id="Path_88110" data-name="Path 88110" d="M40.971,4.819a.488.488,0,0,0,.329-.136l.593-.593v4.29a1.36,1.36,0,0,1,.5-.093H42.4a1.131,1.131,0,0,1,.422.072V4.09l.593.593a.465.465,0,0,0,.657-.657L42.687,2.639a.467.467,0,0,0-.658,0L40.641,4.026a.469.469,0,0,0,0,.657.483.483,0,0,0,.329.136Z" transform="translate(-33.521 -2.504)" fill="#fff"/>
          <path id="Path_88111" data-name="Path 88111" d="M62.5,19.1l2.431-2.431V17.5a.465.465,0,1,0,.929,0V15.543a.464.464,0,0,0-.465-.465H63.432a.465.465,0,1,0,0,.929h.836l-2.5,2.5a1.436,1.436,0,0,1,.729.587Z" transform="translate(-50.634 -12.626)" fill="#fff"/>
          <path id="Path_88112" data-name="Path 88112" d="M69.386,39.827,68,38.44a.457.457,0,0,0-.657,0,.469.469,0,0,0,0,.657l.593.593H63.666c-.093.251-.222.558-.393.929h4.662l-.593.587a.469.469,0,0,0,0,.657.467.467,0,0,0,.658,0l1.387-1.38a.483.483,0,0,0,.136-.329.462.462,0,0,0-.136-.329Z" transform="translate(-51.847 -31.32)" fill="#fff"/>
          <path id="Path_88113" data-name="Path 88113" d="M38.53,39.194l.1.011a14.11,14.11,0,0,0,3.388,0l.023-.006a6.1,6.1,0,0,0,.611-1.73.526.526,0,0,0-1-.226c-.5.69-.707-.317-1.284-.317s-.865.933-1.306.311a.577.577,0,0,0-1.08.215,5.048,5.048,0,0,0,.555,1.742Z" transform="translate(-31.484 -30.213)" fill="#fff"/>
          <path id="Path_88114" data-name="Path 88114" d="M32.843,53.219a14.95,14.95,0,0,1-3.615,0c-1.319,1.122-2.786,2.992-2.786,4.7,0,2.676,2.057,3.938,4.594,3.938s4.594-1.262,4.594-3.938c0-1.707-1.463-3.571-2.786-4.7Zm-1.382,6.544V60.3a.127.127,0,0,1-.127.127h-.6a.127.127,0,0,1-.127-.127v-.541a1.331,1.331,0,0,1-1.216-1.175.129.129,0,0,1,.126-.146h.606a.124.124,0,0,1,.123.1.48.48,0,0,0,.469.382h.636a.48.48,0,0,0,.477-.529.5.5,0,0,0-.505-.43H30.77A1.368,1.368,0,0,1,29.395,56.8a1.328,1.328,0,0,1,1.214-1.486v-.541a.127.127,0,0,1,.127-.127h.6a.127.127,0,0,1,.127.127v.541a1.331,1.331,0,0,1,1.216,1.175.129.129,0,0,1-.126.146h-.606a.124.124,0,0,1-.123-.1.48.48,0,0,0-.469-.382h-.607a.5.5,0,0,0-.506.429.48.48,0,0,0,.477.529H31.3a1.368,1.368,0,0,1,1.375,1.167,1.329,1.329,0,0,1-1.214,1.486Z" transform="translate(-22.199 -43.329)" fill="#fff"/>
        </g>
      </g>
    </g>
  </g>
</svg>
